<?xml version="1.0" encoding="utf-8"?>
<!-- Generator: Adobe Illustrator 22.1.0, SVG Export Plug-In . SVG Version: 6.00 Build 0)  -->
<svg version="1.1" id="Warstwa_1" xmlns="http://www.w3.org/2000/svg" xmlns:xlink="http://www.w3.org/1999/xlink" x="0px" y="0px"
	 viewBox="0 0 128 128" style="enable-background:new 0 0 128 128;" xml:space="preserve">
<style type="text/css">
	.st0{fill:#F7DF1E;}
	.st1{fill:#222222;}
</style>
<g>
	<rect class="st0" width="128" height="128"/>
</g>
<g>
	
		<rect x="82" y="72.1" transform="matrix(0.7071 0.7071 -0.7071 0.7071 87.6133 -39.0901)" class="st1" width="18.1" height="28.3"/>
	<path class="st1" d="M67.3,104.3l-1.4-1.4c-1.2-1.2-1.2-3.1,0-4.3l9.2-9.2c1.2-1.2,3.1-1.2,4.3,0l1.4,1.4c1.2,1.2,1.2,3.1,0,4.3
		l-9.2,9.2C70.4,105.4,68.5,105.4,67.3,104.3z"/>
	<path class="st1" d="M97.1,79.4l1.4-1.4c1.2-1.2,3.1-1.2,4.3,0l9.2,9.2c1.2,1.2,1.2,3.1,0,4.3l-1.4,1.4c-1.2,1.2-3.1,1.2-4.3,0
		l-9.2-9.2C95.9,82.5,95.9,80.6,97.1,79.4z"/>
	<path class="st1" d="M104.9,90.7v-2c0-1.7,1.4-3,3-3h13c1.7,0,3,1.4,3,3v2c0,1.7-1.4,3-3,3h-13C106.3,93.7,104.9,92.4,104.9,90.7z"
		/>
	<path class="st1" d="M97.8,106.1l-1.4,1.4c-1.2,1.2-3.1,1.2-4.3,0L80,95.4l5.7-5.7l12.1,12.1C99,103.1,99,105,97.8,106.1z"/>
	<path class="st1" d="M96,71.9v2c0,1.7-1.4,3-3,3H71.3c-1.7,0-3-1.4-3-3v-2c0-1.7,1.4-3,3-3H93C94.6,68.9,96,70.2,96,71.9z"/>
	<path class="st1" d="M96.4,100.7l1.4,1.4c1.2,1.2,1.2,3.1,0,4.3l-17.7,17.7c-1.2,1.2-3.1,1.2-4.3,0l-1.4-1.4
		c-1.2-1.2-1.2-3.1,0-4.3l17.7-17.7C93.3,99.5,95.2,99.5,96.4,100.7z"/>
	<path class="st1" d="M73,99.8v2c0,1.7-1.4,3-3,3H47c-1.7,0-3-1.4-3-3v-2c0-1.7,1.4-3,3-3H70C71.6,96.8,73,98.1,73,99.8z"/>
	<circle class="st1" cx="108.3" cy="68.9" r="7.8"/>
</g>
</svg>
